/* XPM */
static char * C:\Users\hydra\OneDrive\Desktop\Programing\cursus\SLG\solong\img\digits\0_xpm[] = {
"32 32 13 1",
" 	c #853A3A",
".	c #2B1C23",
"+	c #8F4E46",
"@	c #803F38",
"#	c #783031",
"$	c #36242B",
"%	c #B3897B",
"&	c #8C5B54",
"*	c #997163",
"=	c #734343",
"-	c #522A2F",
";	c #966354",
">	c #45212A",
"            ........            ",
"          ..++++++++..          ",
"        ..++++++++++++..        ",
"       .++@++@@@+++++++@.#####  ",
"      .++++@@+++@@@@@@@++.    ##",
"#####.++++++++++++++++++++.     ",
"    .++++++++$$$$$$++++++++.    ",
"   .++++++++$%%%%%%$++++++++.   ",
"   .++++@@@$%&&****&$+++++++.   ",
"  .++@@@++$%**====***$+++++++.  ",
"##.+++++++$%*=$$$$=%*$@@@++@@.  ",
" .++++++++$%&$----$%&$+++@@++;.#",
" .++++++++$%*$++++$%*$+++++++;. ",
" .++++++++$%*$++++$%*$+++++++;. ",
" .++++++++$%*$++++$%*$+++++++;. ",
" .++++++++$%*$++++$%&$+++++++;. ",
" .++++++++$%*$++++$%*$+++++++;. ",
" ..@++++++$%*$++++$%*$+++++@;.. ",
"#..+@++++@$%*$++++$%*$+++@@+;..#",
" .-.+@@@@+$%%*$$$$%&&$@@@++;.-. ",
" .-.++++++$$%*%%%%**=$+++++;.-. ",
" .>-.++++++$=**&&**=$-++++;.->. ",
"  .-.++++++-$======$-+++++;.-.  ",
"  .>-.++++++-$$$$$$-+++++;.->.  ",
"   .>-.++@@++------+++++;.->.   ",
"#   .>-.@++@@@@+++@@@+;;.->.####",
" ### .>-..+++++@@@++;;..->.     ",
"    ##.>--..;;;;;;;;..-->.      ",
"       .>>--........-->>.       ",
"        ..>>-------->>..        ",
"          ..>>>>>>>>..          ",
"            ........            "};
