/* XPM */
static char * C:\Users\hydra\OneDrive\Desktop\0_xpm[] = {
"32 32 14 1",
" 	c None",
".	c #2B1C23",
"+	c #8F4E46",
"@	c #803F38",
"#	c #36242B",
"$	c #B3897B",
"%	c #8C5B54",
"&	c #997163",
"*	c #734343",
"=	c #522A2F",
"-	c #966354",
";	c #4F2C2D",
">	c #955F51",
",	c #45212A",
"            ........            ",
"          ..++++++++..          ",
"        ..++++++++++++..        ",
"       .++@++@@@+++++++@.       ",
"      .++++@@+++@@@@@@@++.      ",
"     .++++++++++++++++++++.     ",
"    .++++++++######++++++++.    ",
"   .++++++++#$$$$$$#++++++++.   ",
"   .++++@@@#$%%&&&&%#+++++++.   ",
"  .++@@@++#$&&****&&&#+++++++.  ",
"  .+++++++#$&*####*$&#@@@++@@.  ",
" .++++++++#$%#====#$%#+++@@++-. ",
" .++++++++#&&#++++#$&#+++++++-; ",
" .++++++++#&&#++++#&&#+++++++>; ",
" .++++++++#&&#++++#&&#+++++++>. ",
" .++++++++#&&#++++#%%#+++++++-. ",
" .++++++++#&&*++++#$&#+++++++-. ",
" ..@++++++#&&#++++#$&#+++++@-.. ",
" ..+@++++@#&&#++++#$&#+++@@+-.. ",
" .=.+@@@@+#%$$##+#$%%#@@@++-.=. ",
" .=.++++++#*%&$$$$&&*#+++++-.=. ",
" .,=.++++++#*&&%%&&*#=++++-.=,. ",
"  .=.++++++=#******#=+++++-.=.  ",
"  .,=.++++++=######=+++++-.=,.  ",
"   .,=.++@@++======+++++-.=,.   ",
"    .,=.@++@@@@+++@@@+--.=,.    ",
"     .,=..+++++@@@++--..=,.     ",
"      .,==..--------..==,.      ",
"       .,,==........==,,.       ",
"        ..,,========,,..        ",
"          ..,,,,,,,,..          ",
"            ........            "};
