/* XPM */
static char * C:\Users\hydra\OneDrive\Desktop\7_xpm[] = {
"32 32 12 1",
" 	c None",
".	c #2B1C23",
"+	c #8F4E46",
"@	c #803F38",
"#	c #36242B",
"$	c #B3897B",
"%	c #997163",
"&	c #8C5B54",
"*	c #734343",
"=	c #522A2F",
"-	c #966354",
";	c #45212A",
"            ........            ",
"          ..++++++++..          ",
"        ..++++++++++++..        ",
"       .++@++@@@+++++++@.       ",
"      .++++@@+++@@@@@@@++.      ",
"     .++++++++++++++++++++.     ",
"    .+++++###########++++++.    ",
"   .++++++#$$$$$$$$$#+++++++.   ",
"   .++++@@#$%%%%&&&%#+++++++.   ",
"  .++@@@++#$&*****$&#@+++++++.  ",
"  .+++++++#**####$%%#+@@@++@@.  ",
" .++++++++=##===#$%*#++++@@++-. ",
" .+++++++++==++#$%*#=++++++++-. ",
" .+++++++++++++#$&#=+++++++++-. ",
" .++++++++++++#$&*#++++++++++-. ",
" .++++++++++++#$%#=++++++++++-. ",
" .++++++++++++#$%#+++++++++++-. ",
" ..@++++++++++#$%#+++++++++@-.. ",
" ..+@++++@@@@+#$&#+++++++@@+-.. ",
" .=.+@@@@++++@#$%#@@@@@@@++-.=. ",
" .=.++++++++++#$%#+++++++++-.=. ",
" .;=.+++++++++#$%#++++++++-.=;. ",
"  .=.+++++++++#**#++++++++-.=.  ",
"  .;=.++++++++####+++++++-.=;.  ",
"   .;=.++@@+++====++++++-.=;.   ",
"    .;=.@++@@@@+++@@@+--.=;.    ",
"     .;=..+++++@@@++--..=;.     ",
"      .;==..--------..==;.      ",
"       .;;==........==;;.       ",
"        ..;;========;;..        ",
"          ..;;;;;;;;..          ",
"            ........            "};
