/* XPM */
static char * C:\Users\hydra\OneDrive\Desktop\Programing\cursus\SLG\solong\img\player\down_xpm[] = {
"32 32 12 1",
" 	c #95BB1F",
".	c #8FB31E",
"+	c #A4C92D",
"@	c #87AA1C",
"#	c #9FC42C",
"$	c #5C4E92",
"%	c #F3F2C0",
"&	c #E8B5AC",
"*	c #DDD5DE",
"=	c #F3D8C5",
"-	c #766DAA",
";	c #EAE178",
" .  .  +  ..  .  @ .    #      .",
"  .. .  # +     .  . @  .+ + .. ",
"...  . .   @ . +  .  .  .   .  .",
".  #  . @ .@ . # .+.  .   . @ + ",
" +#  .    .     .   #+ . @.. .#+",
" +   . ++   +    @ . # + @. @  #",
"   .@ . #+ + @. .@.   #..   .  .",
" @  @. . #.+.@ .  ..     .   .. ",
". . .  ....$$$.@ .$$$. . #  +  .",
" . .#+   .$%%%$. $%%%$    +..   ",
".@.  #+ + $&&%$$$$%&&$ .     .. ",
".@    #+  $&&%****%&&$ . . .@.  ",
" .. . .  .$%%%****%%%$. .@.     ",
" .  . .@  $%%%****%%%$ #  .  + .",
"  +  + @.$$%%%%%%%%%%$$ #+  +#  ",
".  + +   #$%$%%%%%%$%$   #+ #  .",
" . .   . $$%%%%%%%%%%$$. .# . @ ",
" .   @.   $==%%%%%%==$       .  ",
"   +   .   $$------$$   .  .   @",
" +#  . @ .$*%--;%--%*$+  .@. #  ",
"+#  .. @ @$*%%%;;%%%*$. . @   + ",
"#      .   $$%%%%%%$$  . . .. # ",
" . .  +  .  $**$$**$ .  @.  @  .",
".   . # + .  $$.+$$.         .  ",
" @ @.  ..  @.        + .  +   . ",
"  .@  .  .   .  .@.   #+ +#  .@ ",
" .      . +     .   .. # #..   .",
"  #  + + .#+  +    . @   ..  .  ",
" +.  #+  . # +.. +      . @  + .",
"+#  . #...  .  @  #+  +   @.  + ",
"# .   .  @    . .  # +  @.  . # ",
"   . .. .  + .. . . . ..  .  .. "};
