/* XPM */
static char * C:\Users\hydra\OneDrive\Desktop\Programing\cursus\SLG\solong\img\player\up_xpm[] = {
"32 32 9 1",
" 	c #95BB1F",
".	c #8FB31E",
"+	c #A4C92D",
"@	c #87AA1C",
"#	c #9FC42C",
"$	c #5C4E92",
"%	c #F3F2C0",
"&	c #DDD5DE",
"*	c #766DAA",
" .  .  +  ..  .  @ .    #      .",
"  .. .  # +     .  . @  .+ + .. ",
"...  . .   @ . +  .  .  .   .  .",
".  #  . @ .@ . # .+.  .   . @ + ",
" +#  .    .     .   #+ . @.. .#+",
" +   . ++   +    @ . # + @. @  #",
"   .@ . #+ + @. .@.   #..   .  .",
" @  @. . #.+.@ .  ..     .   .. ",
". . .  ....$$$.@ .$$$. . #  +  .",
" . .#+   .$%%%$. $%%%$    +..   ",
".@.  #+ + $%%%$$$$%%%$ .     .. ",
".@    #+  $%%%&&&&%%%$ . . .@.  ",
" .. . .  .$%%%%%%%%%%$. .@.     ",
" .  . .@  $%%%%%%%%%%$ #  .  + .",
"  +  + @.$$%%%%%%%%%%$$ #+  +#  ",
".  + +   #$%%%%%%%%%%$   #+ #  .",
" . .   . $$%%%%%%%%%%$$. .# . @ ",
" .   @.   $%%%%%%%%%%$       .  ",
"   +   .   $$******$$   .  .   @",
" +#  . @ .$&%**$$**%&$+  .@. #  ",
"+#  .. @ @$&%%$%%$%%&$. . @   + ",
"#      .   $$%%%%%%$$  . . .. # ",
" . .  +  .  $&&$$&&$ .  @.  @  .",
".   . # + .  $$.+$$.         .  ",
" @ @.  ..  @.        + .  +   . ",
"  .@  .  .   .  .@.   #+ +#  .@ ",
" .      . +     .   .. # #..   .",
"  #  + + .#+  +    . @   ..  .  ",
" +.  #+  . # +.. +      . @  + .",
"+#  . #...  .  @  #+  +   @.  + ",
"# .   .  @    . .  # +  @.  . # ",
"   . .. .  + .. . . . ..  .  .. "};
