/* XPM */
static char * C:\Users\hydra\OneDrive\Desktop\Programing\cursus\SLG\solong\img\left_1_xpm[] = {
"32 32 15 1",
" 	c #95BB1F",
".	c #8FB31E",
"+	c #A4C92D",
"@	c #87AA1C",
"#	c #9FC42C",
"$	c #354048",
"%	c #782C4D",
"&	c #AD4E2F",
"*	c #506265",
"=	c #FF4E45",
"-	c #FDA500",
";	c #FAFCA0",
">	c #484562",
",	c #C0BDB1",
"'	c #F2F0C5",
" .  .  +  ..  .  @ .    #      .",
"  .. .  # +     .  . @  .+ + .. ",
"...  . .   @ . +  .  .  .   .  .",
".  #  . @ .@ . # .+.  .   . @ + ",
" +#  .    .     .   #+ . @.. .#+",
" +   . ++   +    @ . # + @. @  #",
"   .@ . #+ + @. .@.   #..   .  .",
" @  @. . #.+.@ .  ..     .   .. ",
". . .  ....  ..@ .  @. . #  +  .",
" . $$$   $$   ..   .@     +..   ",
".@.%&$$$$*$. .   +   . .     .. ",
".@  %&=&*=$   .   +    . . .@.  ",
" .. &=-==&% #  +. # +.. .@.     ",
" . %=-=;==&%%%%%%%%%%%%%%%%>>+ .",
"  $$$=---===-------=&-----=,'*> ",
". >$,'''--=---------==----'''> .",
" . .>$$,'==-----=---=&&=-==,> @ ",
" .   @.$,',=---=&---&$>>>>>  .  ",
"   +   .$,'&=--&>&-->   .  .   @",
" +#  . @ $*>>-=>>&-=$ +  .@. #  ",
"+#  .. @$>&>>*&>>>*=>$. . @   + ",
"#      $$$$>***$$**>$$$. . .. # ",
" . .  +$$$$$$$$$$$$$$$$ @.  @  .",
".   . # $$$$$$$$$$$$$$       .  ",
" @ @.  ..  @.        + .  +   . ",
"  .@  .  .   .  .@.   #+ +#  .@ ",
" .      . +     .   .. # #..   .",
"  #  + + .#+  +    . @   ..  .  ",
" +.  #+  . # +.. +      . @  + .",
"+#  . #...  .  @  #+  +   @.  + ",
"# .   .  @    . .  # +  @.  . # ",
"   . .. .  + .. . . . ..  .  .. "};
