/* XPM */
static char * C:\Users\hydra\OneDrive\Desktop\Programing\cursus\SLG\solong\img\right_0_xpm[] = {
"32 32 15 1",
" 	c #95BB1F",
".	c #8FB31E",
"+	c #A4C92D",
"@	c #87AA1C",
"#	c #9FC42C",
"$	c #354048",
"%	c #506265",
"&	c #AD4E2F",
"*	c #782C4D",
"=	c #FF4E45",
"-	c #484562",
";	c #FDA500",
">	c #F2F0C5",
",	c #C0BDB1",
"'	c #FAFCA0",
" .  .  +  ..  .  @ .    #      .",
"  .. .  # +     .  . @  .+ + .. ",
"...  . .   @ . +  .  .  .   .  .",
".  #  . @ .@ . # .+.  .   . @ + ",
" +#  .    .     .   #+ . @.. .#+",
" +   . ++   +    @ . # + @. @  #",
"   .@ . #+ + @. .@.   #..   .  .",
" @  @. . #.+.@ .  ..     .   .. ",
". . .  ....  ..@ .  @. . #  +  .",
" . .#+   .    ..   .@     +..   ",
".@.  #+ +  . .   +   $$.  $$$.. ",
".@    #+  .   .   +  $%$$$$&*.  ",
" .. . .  .  #  +. # +$=%&=&*    ",
" . --**@     +.#.  . *&==;=& + .",
" -%>,==**************&=='=;=*#  ",
". ->>>;;;;;&=;;;;;;;===;;;=$$$ .",
" . -,=;;;;==;;;;;;;;;=;;>>>,$-@ ",
" .  ---==&&=;;;=;;;;;==>,$$- .  ",
"   +   .--$-;;;-&;;=&,>,$  .   @",
" +#  . @ . $&;;&=;--&%$- .@. #  ",
"+#  .. @ @$&-=%%&%---%-$. @   + ",
"#      . $%$$-%%-%%--$%$$. .. # ",
" . .  +  $$$$$$$$$$$$$$$$.  @  .",
".   . # + $$$$$$$$$$$$$$     .  ",
" @ @.  ..  @.        + .  +   . ",
"  .@  .  .   .  .@.   #+ +#  .@ ",
" .      . +     .   .. # #..   .",
"  #  + + .#+  +    . @   ..  .  ",
" +.  #+  . # +.. +      . @  + .",
"+#  . #...  .  @  #+  +   @.  + ",
"# .   .  @    . .  # +  @.  . # ",
"   . .. .  + .. . . . ..  .  .. "};
