/* XPM */
static char * C:\Users\hydra\OneDrive\Desktop\Programing\cursus\SLG\so_long\img\player\down\1_xpm[] = {
"32 32 8 1",
" 	c None",
".	c #5C4E92",
"+	c #F3F2C0",
"@	c #E8B5AC",
"#	c #DDD5DE",
"$	c #F3D8C5",
"%	c #766DAA",
"&	c #EAE178",
"                                ",
"                                ",
"                                ",
"                                ",
"                                ",
"                                ",
"                                ",
"           ...    ...           ",
"          .+++.  .+++.          ",
"          .@@+....+@@.          ",
"          .@@+####+@@.          ",
"          .+++####+++.          ",
"          .+++####+++.          ",
"         ..++++++++++..         ",
"          .+.++++++.+.          ",
"         ..++++++++++..         ",
"          .$$++++++$$.          ",
"           ..%%%%%%..           ",
"            .%%&+%%.            ",
"           .#++&&++#.           ",
"           .#++++++#.           ",
"            .++++++.            ",
"            .##..##.            ",
"             ..  ..             ",
"                                ",
"                                ",
"                                ",
"                                ",
"                                ",
"                                ",
"                                ",
"                                "};
