/* XPM */
static char * C:\Users\hydra\OneDrive\Desktop\Programing\cursus\SLG\solong\img\wall_xpm[] = {
"32 32 38 1",
" 	c #95BB1F",
".	c #8FB31E",
"+	c #A4C92D",
"@	c #87AA1C",
"#	c #9FC42C",
"$	c #3A4F3C",
"%	c #363B3A",
"&	c #27611D",
"*	c #2F7021",
"=	c #438233",
"-	c #589747",
";	c #4E8E3E",
">	c #94B91F",
",	c #81A12F",
"'	c #8EB21E",
")	c #7B973E",
"!	c #6F8B38",
"~	c #94BA1F",
"{	c #8AAA36",
"]	c #6D8838",
"^	c #6F8A37",
"/	c #7F9F2D",
"(	c #85A71B",
"_	c #93B91E",
":	c #75932D",
"<	c #718C36",
"[	c #7E9D2D",
"}	c #90B51E",
"|	c #84A61B",
"1	c #8DB11E",
"2	c #A1C62C",
"3	c #92B71E",
"4	c #7A982D",
"5	c #7E9E2D",
"6	c #8BAE1D",
"7	c #91B71E",
"8	c #8CB01D",
"9	c #8EB11E",
" .  .  +  ..  .  @ .    #      .",
"  .. .  # +   $$%  . @  .+ + .. ",
"...  . .   & *&&&$.% .  .   .  .",
".  #  . @&**==*=**$&$%%   . @ + ",
" +#  .  &*=---;*-;=*&&$% @.. .#+",
" +   .&*=------=;--;=*$&$%. @  #",
"   .@&*==;-----;--;;*=*=&$% .  .",
" @  @;;--=;--;;==;;=*====*&  .. ",
". . &=---;=;----;=*==;;;=*$%+  .",
" . &=---;=;------;=*=;--;=&$%   ",
".@.*=;-;==------;;=*;;-;-;&$%.. ",
".@&**=;=*;---;-;;=;=;-;-;;*&$%  ",
" .&=;--;==;-;-;-=;=*=--;;=*&%   ",
" $*=----;*=;;;;=*==**=;;=*&$&% .",
"  &;-;-;;=;=;=*=**=;;;=**&*&$%% ",
".$*=;;;==;---;=*=;--;===**&&%% .",
" $&*====;--;-;-==----;;==*&$&$% ",
" .$&*==*;-;-;;;=;;-;;=***=*&&$% ",
" $&$&*&*=;;;;=;*;;=;-;;=***&$%$@",
" $&&&&**===;=;==;=;-;-;;=*&&$$% ",
"+$&*&*=**=*=;*=*=;;--;;==&&$&$% ",
"#%$**&*=**=*==***=;;;;==*$$&$%% ",
" %$&&*&*&**=;;;==*===**&&&&&$% .",
". %$&&$&*&*==;==*=**&***&$&$%$% ",
" @ %$&&$&&**=*=*=*&**&&&$$&$$%. ",
"  %$%$&&$$&**&***&$&&&&$$&$$%%@ ",
" . %%$$$&$$&&*&&&&&$$$$$$$$%%> .",
"  # %%$$$%$$$&&&$$$&&$%$$%%%,'  ",
" +.  )%$%$%$$$$$$$%$$$$%%!%,~+ .",
"+#  . {%]%$%%$$$%%$$%%%^%/('  + ",
"# .   . _:%<%%%%%%%%^%[}|1  . # ",
"   . .. . >23445454}6789  .  .. "};
