/* XPM */
static char * C:\Users\hydra\OneDrive\Desktop\Programing\cursus\SLG\so_long\img\enemy_s\right\5_xpm[] = {
"32 32 8 1",
" 	c #95BB1F",
".	c #90625D",
"+	c #F3E5C2",
"@	c #DCB98A",
"#	c #754C60",
"$	c #E8B5AC",
"%	c #D99A9A",
"&	c #6D7F33",
"                                ",
"                                ",
"                                ",
"                                ",
"                                ",
"                                ",
"                                ",
"                                ",
"                                ",
"                                ",
"                                ",
"                                ",
"                                ",
"                                ",
"                                ",
"                                ",
"                                ",
"                                ",
"                                ",
"                  .  .          ",
"            .... .+..+..        ",
"           .@@+..@@@+++...      ",
"          .@@@.++@@#+#+.@@.     ",
"         ..@@+.++@++++++.@.     ",
"        .@.++++..++$$$$$..      ",
"        ...@@++@@+$$%$%$.       ",
"          .@@@+++.$$$$$$.       ",
"           .@@..@@......        ",
"         &&&..&&..&&..&&&       ",
"          &&&&&&&&&&&&&&        ",
"                                ",
"                                "};
