/* XPM */
static char * C:\Users\hydra\OneDrive\Desktop\Programing\cursus\SLG\so_long\img\object\collect_xpm[] = {
"32 32 15 1",
" 	c #95BB1F",
".	c #8FB31E",
"+	c #A4C92D",
"@	c #87AA1C",
"#	c #9FC42C",
"$	c #F3F4E7",
"%	c #5F7A79",
"&	c #754C60",
"*	c #82A884",
"=	c #6E967C",
"-	c #A35B70",
";	c #BD757E",
">	c #AF6776",
",	c #D99A9A",
"'	c #8A4A70",
" .  .  +  ..  .  @ .    #      .",
"  .. .  # +     .  . @  .+ + .. ",
"...  . .   @ . +  .  .  .   .  .",
".  #  . @ .@ . # .+.  .   . @ + ",
" +#  .    .     .   #+ . @.. .#+",
" +   . ++   +    @ . # + @. @  #",
"   .@ . #+ + @. .@.   #..   .  .",
" @  @. . #.+.@ .  ..     .   .. ",
". . .  ....  ..@ .  @. . #  +  .",
" . .#+   .    ..  $$$$    +..   ",
".@.  #+ +  . . $ $%%%$ .     .. ",
".@    #+  .   $&$%**%$ . . .@.  ",
" .. . .  .  $$$&%==*%$. .@.     ",
" .  . .@   $---&%%%%$  #  .  + .",
"  +  + @. $-;;;-->>-$.  #+  +#  ",
".  + +   $-;,;;;>>>>-$   #+ #  .",
" . .   . $-;;;,;>>>>'$ . .# . @ ",
" .   @.  $-;;;;;>>>>'$       .  ",
"   +   . $';;;;>>>>>'$  .  .   @",
" +#  . @ .$'>>>>>>>'$ +  .@. #  ",
"+#  .. @ @.$'>>'>>'$.+. . @   + ",
"#      .   .$''$''$.   . . .. # ",
" . .  +  .   $$ $$   .  @.  @  .",
".   . # + .   #.+. .         .  ",
" @ @.  ..  @.        + .  +   . ",
"  .@  .  .   .  .@.   #+ +#  .@ ",
" .      . +     .   .. # #..   .",
"  #  + + .#+  +    . @   ..  .  ",
" +.  #+  . # +.. +      . @  + .",
"+#  . #...  .  @  #+  +   @.  + ",
"# .   .  @    . .  # +  @.  . # ",
"   . .. .  + .. . . . ..  .  .. "};
