/* XPM */
static char * C:\Users\hydra\OneDrive\Desktop\exit_xpm[] = {
"32 32 27 1",
" 	c #95BB1F",
".	c #8FB31E",
"+	c #A4C92D",
"@	c #87AA1C",
"#	c #9FC42C",
"$	c #C7AC78",
"%	c #B4A16F",
"&	c #95855C",
"*	c #D4B87F",
"=	c #C9A55E",
"-	c #F0D191",
";	c #E0C288",
">	c #403E3F",
",	c #7A6233",
"'	c #584639",
")	c #313133",
"!	c #323133",
"~	c #7C9B25",
"{	c #8B803F",
"]	c #685336",
"^	c #423E3F",
"/	c #718C2A",
"(	c #B1A35A",
"_	c #81A126",
":	c #678029",
"<	c #6C862A",
"[	c #789230",
" .  .  +  ..  .  @ .    #      .",
"  .. .  # +     .  . @  .+ + .. ",
"...  . .   @ . +  .  .  .   .  .",
".  #  . @ .@ . # .+.  .   . @ + ",
" +#  .    .     .   #+ . @.. .#+",
" +   . ++   +    @ . # + @. @  #",
"   .@ . #+ + @. .@.   #..   .  .",
" @  @. . #.+.@ .  ..     .   .. ",
". . .  ....  $%$%&& @. . #  +  .",
" . .#+   . $&***===%%     +..   ",
".@.  #+ + $*&%$%%%**=% .     .. ",
".@    #+ $-;$&;;*=%%*=%. . .@.  ",
" .. . . $-;$;%$$%%;=%*=&.@.     ",
" .  . .@%-;-$;$%%%*%&&&&  .  + .",
"  +  + @%-;-;$-;;;%;*%*&#+  +#  ",
".  + + >,$-;-;$$%%;*%*%')#+ #  .",
" . .  !>,%;-$$--%&$%*%''))# . @ ",
" .   @~>{%{;-;$$$&-*%]'^!/   .  ",
"   +  >]%,{((;---&%&]'^^^!_.   @",
" +#  >,(]'{{({(({{,,]''^^^!. #  ",
"+#  .~!'>({{{{{({,]{,]'!^!:   + ",
"#     _>({]({,{{{,]{']]'!< .. # ",
" . .  >{,]'(,'{({]','!']'!  @  .",
".   . #>>!{]'!{(,]!],'!!!_   .  ",
" @ @.  ..!]'!!,{,'!!]]!~  +   . ",
"  .@  .  ~!!/~!,]!<_!![+ +#  .@ ",
" .      . +   _!!/  .. # #..   .",
"  #  + + .#+  +    . @   ..  .  ",
" +.  #+  . # +.. +      . @  + .",
"+#  . #...  .  @  #+  +   @.  + ",
"# .   .  @    . .  # +  @.  . # ",
"   . .. .  + .. . . . ..  .  .. "};
