/* XPM */
static char * C:\Users\hydra\OneDrive\Desktop\Programing\cursus\SLG\so_long\img\footer\title_xpm[] = {
"226 32 170 2",
"  	c #853A3A",
". 	c #783031",
"+ 	c #803737",
"@ 	c #783434",
"# 	c #7B3535",
"$ 	c #843A3A",
"% 	c #833939",
"& 	c #7A3535",
"* 	c #7E3636",
"= 	c #431818",
"- 	c #000000",
"; 	c #070101",
"> 	c #622929",
", 	c #0E0202",
"' 	c #521E1F",
") 	c #2F0E0F",
"! 	c #7F3737",
"~ 	c #090202",
"{ 	c #150404",
"] 	c #672B2B",
"^ 	c #762F30",
"/ 	c #6F2C2D",
"( 	c #0A0202",
"_ 	c #160404",
": 	c #6B2D2D",
"< 	c #7D3636",
"[ 	c #3C1616",
"} 	c #793434",
"| 	c #441818",
"1 	c #1D0707",
"2 	c #632A2A",
"3 	c #250B0B",
"4 	c #843939",
"5 	c #3B1616",
"6 	c #6D2B2C",
"7 	c #712D2E",
"8 	c #682C2C",
"9 	c #361313",
"0 	c #030101",
"a 	c #3D1717",
"b 	c #4B1E1E",
"c 	c #582424",
"d 	c #0C0202",
"e 	c #0F0303",
"f 	c #592424",
"g 	c #823939",
"h 	c #813838",
"i 	c #2E0F0F",
"j 	c #502020",
"k 	c #4C1E1E",
"l 	c #542222",
"m 	c #441A1A",
"n 	c #6E2F2F",
"o 	c #311111",
"p 	c #110303",
"q 	c #5A2525",
"r 	c #371414",
"s 	c #160505",
"t 	c #2C0E0E",
"u 	c #280C0C",
"v 	c #652A2A",
"w 	c #823838",
"x 	c #612929",
"y 	c #5E2727",
"z 	c #723131",
"A 	c #2D0F0F",
"B 	c #240A0A",
"C 	c #6C2E2E",
"D 	c #331212",
"E 	c #1B0707",
"F 	c #461B1B",
"G 	c #471B1B",
"H 	c #421919",
"I 	c #4E1F1F",
"J 	c #220909",
"K 	c #290D0D",
"L 	c #662B2B",
"M 	c #4D1E1E",
"N 	c #522121",
"O 	c #4A1D1D",
"P 	c #230A0A",
"Q 	c #260B0B",
"R 	c #4F1F1F",
"S 	c #180505",
"T 	c #713030",
"U 	c #401818",
"V 	c #301010",
"W 	c #602828",
"X 	c #7C3636",
"Y 	c #270C0C",
"Z 	c #642A2A",
"` 	c #692C2C",
" .	c #1F0808",
"..	c #753232",
"+.	c #803838",
"@.	c #341313",
"#.	c #7C3535",
"$.	c #060101",
"%.	c #7E3737",
"&.	c #702C2D",
"*.	c #441819",
"=.	c #652728",
"-.	c #6F2F2F",
";.	c #763333",
">.	c #3A1515",
",.	c #69292A",
"'.	c #742E2F",
").	c #391515",
"!.	c #632929",
"~.	c #743232",
"{.	c #1E0707",
"].	c #200909",
"^.	c #582122",
"/.	c #411717",
"(.	c #562323",
"_.	c #4A1B1B",
":.	c #2A0C0C",
"<.	c #733131",
"[.	c #632627",
"}.	c #210808",
"|.	c #5C2324",
"1.	c #4D1C1D",
"2.	c #752F30",
"3.	c #270A0B",
"4.	c #230909",
"5.	c #6C2A2B",
"6.	c #2F0E0E",
"7.	c #2D0D0E",
"8.	c #341212",
"9.	c #5F2425",
"0.	c #5D2324",
"a.	c #371212",
"b.	c #622627",
"c.	c #662829",
"d.	c #351112",
"e.	c #310F0F",
"f.	c #24090A",
"g.	c #200808",
"h.	c #6E2B2C",
"i.	c #552020",
"j.	c #4C1C1C",
"k.	c #783333",
"l.	c #4E1C1D",
"m.	c #552323",
"n.	c #722D2E",
"o.	c #1E0808",
"p.	c #5D2424",
"q.	c #5E2425",
"r.	c #572323",
"s.	c #3D1515",
"t.	c #321010",
"u.	c #100303",
"v.	c #692D2D",
"w.	c #130404",
"x.	c #6A292A",
"y.	c #773333",
"z.	c #3F1818",
"A.	c #7A3434",
"B.	c #2B0E0E",
"C.	c #572424",
"D.	c #381414",
"E.	c #6A2D2D",
"F.	c #1A0606",
"G.	c #491D1D",
"H.	c #2A0D0D",
"I.	c #532121",
"J.	c #532222",
"K.	c #411919",
"L.	c #481C1C",
"M.	c #612828",
"                                                                                                                                                                                                                                                                                                                                                                                                                                                                    ",
"                                                                                                                                                                                                                                                                                                                                                                                                                                                                    ",
"                                                                                                                                                                                                                                                                                                                                                                                                                                                                    ",
"                                                                                                                                                                                                                                                                                                                                                                                    . . . . .         . . . . .                                         . . . . .   ",
"                  . . . . .                                                       . . . . .                                                           . . . . .                                                       . . . . .                                                     . . . . .                                                                                   . .           . . . .           . .   . . .     . . .               . .           . ",
"              . .           . .                 . . .     . . .               . .           . .                     . . .     . . .               . .           . .                 . . .     . . .               . .           .                 . . .     . . .               . .           . .                             . . .     . . .                               . .                                     .       . .       . . . . . . .                 ",
". . . . . . .                   . . . . . . . .       . .       . . . . . . .                   . . . . . . . . . .       . .       . . . . . . .                   . . . . . . . .       . .       . . . . . . .                 . . . . . . . .       . .       . . . . . . .                               . . . . . . . .       . .       . . . . . . . . . . . . . . .                                                                                         ",
"                                                                                                                                                                                                                                                                                                  . . . . . .                                                                                                                                                       ",
"                                                                                                                                                                                                                                                                                                                                                                                                                      + @ @ @ # $ % @ @ @ & & @ @ @ %               ",
"                                                                                                                                                                                                                                                                                                                                                                                                                    * = - - ; > % # - - , ' ) - - - @               ",
"  . . .                                         . . . .           . . .                                             . . . .           . . .                                         . . . .           . . .                                       . . . .           . . .                                                     . . . .           . . .                       . .                                   ! = ~ - { ] ^ . / ( _ : < [ - - - }               ",
".       . .                     . . . . . . . .         . . . . .       . .                     . . . . . . . . . .         . . . . .       . .                     . . . . . . . .         . . . . .       . .                   . . . . . . . .         . . . . .       . .                                 . . . . . . . .         . . . . .       . .   . . . . . . . .     . .             .   .           ! | - - 1 2 %     # 3 ] 4 * 5 - - - 6 .             ",
"            . . .             .                                             . . .             .                                                 . . .             .                                             . . .                                                         . . .             . . . . . . .                                             .                         . . . . . .   .   . . . . 7 = - - { 2 4       * 8 $   * 9 - - 0 }   . . . . . . ",
"                  . . . . . .                                                     . . . . . .                                                         . . . . . .                                                     . . . . . .                                                   . . . . . .                                                                   ] - a                                     ! b ~ - { ] %         $ $   4 c d - e f g               ",
"                                                                                                                                                                                                                                                                                                  h i j                                                           ] - a                                   ! k - - 1 2 %               g c ~ - e l g                 ",
"                                  m - - - - - a < - j                                           < - k                               n o p 8                                                 g - m   g - m                   < - j                                                                 h i j                                           g - m           ] - a                                 * b - - { 2 4               g q p - ~ f g                   ",
"                                  m - - - - - a < - j                                           < - k                               r s + %                                                 g - m   g - m             t u   < - j                                                                                                                 g - m           ] - a                               + b ~ - p v w 4 4 4 4 4 4   $ c p - d c h                     ",
"                                      x - y     < - j                                           < - k                               t u                                                     g - m   g - m             t u   < - j                                                                                                                 g - m           ] - a                               } - - - - ~ e e e e e e u z # p - - A @   4 8 <               ",
"                                      x - y     < - m k B u y     C D E F G - < < - H I J K y   < - k   L - M h N J 3 8           O - - - h # b P Q R <   < - j y S T         C D E F G - < g - m   g - m           H - - U < - m k B u y     } F 1 V W $           C D E F G - < < - H I J K y   g - m   X - U O E Y Z N B A C     C D E F G - < g - m           ] - a                         .     } - - - - - - - - - - - P T # d - - A }   `  .@               ",
"                  F - - - -   . . .   x - y     < - S ..+.@.- #.& $.5 %.} P - < < - S ..+.@.- &.7 - *.=.$.G % Z - -.;.$.}           t u   ! Q >.* # V V h < - r - - / .     & $.5 %.} P - < g - m   g - m             t u   < - S ,.'.@.- #.! P ).! : - !.        & $.5 %.} P - < < - S ..+.@.- &.g - m   X - { 6 z - 0 ~.< p Q   & $.5 %.} P - < g - m     . .   ] - a             . . . . . .   .   6 - ; ; ; ; ~ ~ ~ - - - {.T # d - - A } ] ].- }   . . . . . . ",
"                  . . . . . .       . ^.- y     < - /.. . N - @ ] - `     (.- < < - /.. . _.- @ < - r s :.^ . <.{ D ] '.. . .       t u   8 - `     > - [.7 - }./       . . |.- `     1.- 7 2.- m   g - m             3.4.. 7 - /.    _.- 5.8 - L   . }.6..       ] - `     (.- < < - /.. . _.- @ 2.- m   X - F   ^ - 7.    8.{ . |.- 9.    (.- < g - m         . 0.- a       . a.- - - - +.        . h n n n n n n [.b.d - - P c.X t K K d.^.e.f.g.h..             ",
"    . . . . . . .                     x - i.. . 7 - k     j.- k.] - 9.. . l.- 7 7 - k     m.- k.< - O m - C   . n.^.4.o.@     .     t u . p.- q.. . ^.- n < - O             ] - 9.. . r.- < g - m   g - s.. . . . . . t u   < - k     m.- k.p.- - - - - p   .     ] - 9.. . l.- 7 7 - k     m.- k.g - s.. &.- I   $ - a . . t.u.  ] - v..   r.- < 2.- s.. .           . . . .                                         $ w.- - P T ^ x.x.x.;.y.......g               ",
". .                                   x - y     < - k     m.- 5./ ( z.! A.Q - < < - k     m.- k.< - k ! B.{ y.y A + ] - 8       . . 3.4.  ! 3 >.* # V i h < - k             # d z.! A.Q - < g - s.. 2.- m             t u   < - k     m.- k.< S C.%           . . / ( z.! A.Q - < < - k     m.- k.g - m   X - I   $ - a     D.w.  # d z.! h.}.- 7 g - m           E.F.G.                                              4 p - - P T                                   ",
"                                      x - y     < - k     m.- k.  n D S z.z.- < < - k     m.- k.< - k   ;.e H.X I.1 P J.%           t u     & O J 3 I X   < - k               n D S z.z.- < g - m   g - m             t u   < - k     m.- k.  ..K.F.1 G k.          n D S z.z.- < < - k     m.- k.g - m   X - I   $ - a     D.w.    n D S z.z.- < g - m           E.F.L.                                              4 p - - P T                                   ",
"                                                                                                                                                                                                                                                                                                            h                                                                                                           > M.M.Z #.                                  ",
"                                                                                                                                                                                                                                                                                                                                                                                        . . . . . .       . . . . .     . .                                 . . . . ",
"                      . . . . . .                 . .                                 . . . . . . . .                 . .                                 . . . . . .                 . .                                 . . . . .                 . .                                 . . . . .             .                 . .                         .                 .   . . .             . . .           . .     . . . .       . . . .     . . .         ",
"    . . . .     . . .             . . .     . . .     . . . .       . . . .     . . .                 . . .     . . .     . . . .       . . . .     . . .             . . .     . . .     . . . .       . . . .     . . .           . . .     . . .     . . . .       . . . .     . . .           .             . . .     . . .     . . . .       . . . .     . . .     . . .   .                                                   . . .         . .               ",
". .         . .                         . .                   . . .         . .                             . .                   . . .         . .                         . .                   . . .         . .                       . .                   . . .         . .                   . . .             . .                   . . .         .         . .                                                                                             ",
"                                                                                                                                                                                                                                                                                                          . .                                                                                                                                                       ",
"                                                                                                                                                                                                                                                                                                                                                                                                                                                                    ",
"                                                                                                                                                                                                                                                                                                                                                                                                                                                                    "};
