/* XPM */
static char * C:\Users\hydra\OneDrive\Desktop\Programing\cursus\SLG\solong\img\player\up_0_xpm[] = {
"32 32 5 1",
" 	c None",
".	c #5C4E92",
"+	c #F3F2C0",
"@	c #DDD5DE",
"#	c #766DAA",
"                                ",
"                                ",
"                                ",
"                                ",
"                                ",
"                                ",
"                                ",
"                                ",
"          ....     ...          ",
"         .+++......+++.         ",
"         .++++@@@@++++.         ",
"         .++++++++++++.         ",
"          .++++++++++.          ",
"         ..++++++++++..         ",
"          .++++++++++.          ",
"         ..++++++++++..         ",
"          .++++++++++.          ",
"           ..######..           ",
"            .######.            ",
"            .++..++.            ",
"           .@+.++.+@.           ",
"           .@++++++@.           ",
"            .@@..@@.            ",
"             ..  ..             ",
"                                ",
"                                ",
"                                ",
"                                ",
"                                ",
"                                ",
"                                ",
"                                "};
