/* XPM */
static char * C:\Users\hydra\OneDrive\Desktop\Programing\cursus\SLG\so_long\img\player\up\7_xpm[] = {
"32 32 5 1",
" 	c #95BB1F",
".	c #5C4E92",
"+	c #F3F2C0",
"@	c #DDD5DE",
"#	c #766DAA",
"                                ",
"                                ",
"                                ",
"                                ",
"                                ",
"                                ",
"                                ",
"                                ",
"           ...    ...           ",
"          .+++.  .+++.          ",
"          .+++....+++.          ",
"          .+++@@@@+++.          ",
"          .++++++++++.          ",
"          .++++++++++.          ",
"         ..++++++++++..         ",
"          .++++++++++.          ",
"         ..++++++++++..         ",
"          .++++++++++.          ",
"           ..######..           ",
"           ..##..##..           ",
"          .@++.++.++@.          ",
"          .@++++++++@.          ",
"           ..@@..@@..           ",
"             ..  ..             ",
"                                ",
"                                ",
"                                ",
"                                ",
"                                ",
"                                ",
"                                ",
"                                "};
