/* XPM */
static char * C:\Users\hydra\OneDrive\Desktop\Programing\cursus\SLG\so_long\img\enemy\down\0_xpm[] = {
"32 32 7 1",
" 	c #95BB1F",
".	c #754C60",
"+	c #C49A6C",
"@	c #AA7959",
"#	c #E8B5AC",
"$	c #D99A9A",
"%	c #A0735E",
"                                ",
"                                ",
"                                ",
"                                ",
"                                ",
"                                ",
"                                ",
"                                ",
"                                ",
"                                ",
"                                ",
"                                ",
"        .. ..                   ",
"       .+. .+.                  ",
"    .. .+...+...                ",
"   .+..+@@@@@.++.               ",
"   .+.++@@@@@+++.......         ",
"   .#.+.+@.@@@##.+++@@@..       ",
"    .++.++.@@@..++++@@@@@.      ",
"    .++++++++++++++++@@@@.      ",
"    .#####+++++++++++++@@..     ",
"    .#$#$##++.++@@+++++++.@.    ",
"    .######+.++@@@@++++++..@.   ",
"     ........+++@@+++++++. ..   ",
"            .@+++++++@.@@.      ",
"            .@@@@@@@@.@@@.      ",
"           .@@@.......@@@.      ",
"           .@@.%%. .%%...       ",
"            .. ..   ..          ",
"                                ",
"                                ",
"                                "};
