/* XPM */
static char * C:\Users\hydra\OneDrive\Desktop\Programing\cursus\SLG\so_long\img\player\left\6_xpm[] = {
"32 32 8 1",
" 	c #95BB1F",
".	c #5C4E92",
"+	c #F3F2C0",
"@	c #E8B5AC",
"#	c #F3D8C5",
"$	c #766DAA",
"%	c #EAE178",
"&	c #DDD5DE",
"                                ",
"                                ",
"                                ",
"                                ",
"                                ",
"                                ",
"                                ",
"                                ",
"               ...              ",
"              .+++.             ",
"             ..+@@+.            ",
"            .+++@@+.            ",
"            .++++++.            ",
"            .++++++.            ",
"           ..++++++..           ",
"           .++.++++.            ",
"           .+++++++..           ",
"           .+++##++.            ",
"            .$$$$$.             ",
"            %$$$$+&.            ",
"            %.++++&.            ",
"             .++++.             ",
"              .&&.              ",
"               ..               ",
"                                ",
"                                ",
"                                ",
"                                ",
"                                ",
"                                ",
"                                ",
"                                "};
