/* XPM */
static char * C:\Users\hydra\OneDrive\Desktop\Programing\cursus\SLG\so_long\img\enemy\right\5_xpm[] = {
"32 32 6 1",
" 	c None",
".	c #754C60",
"+	c #C49A6C",
"@	c #AA7959",
"#	c #E8B5AC",
"$	c #D99A9A",
"                                ",
"                                ",
"                                ",
"                                ",
"                                ",
"                                ",
"                                ",
"                                ",
"                                ",
"                                ",
"                                ",
"                                ",
"                 ..  ..         ",
"                .+.  .+.        ",
"             .. .+....+.  ..    ",
"            .++..@@@@@++..++.   ",
"         ....++++@@@@@+++.++.   ",
"       ..@@@.##+@@@.@++.+.##.   ",
"      .@@@@@+...@@@.+++.++..    ",
"      .@@@@+++++++++++++++.     ",
"     ..@@+++++++++++######.     ",
"    .@.++++++@@+.++##$##$#.     ",
"   .@..+++++@@@@+.+#######.     ",
"   .. .++++++@@+++........      ",
"      .@@@@++++@@@@@@.          ",
"      .@@@@@@@@..@@.@.          ",
"      .@@...... .@@.@.          ",
"      .@@.       ..@@.          ",
"       ..          ..           ",
"                                ",
"                                ",
"                                "};
