/* XPM */
static char * C:\Users\hydra\OneDrive\Desktop\Programing\cursus\SLG\solong\img\dot_xpm[] = {
"32 32 19 1",
" 	c #95BB1F",
".	c #8FB31E",
"+	c #A4C92D",
"@	c #87AA1C",
"#	c #9FC42C",
"$	c #830002",
"%	c #AD0000",
"&	c #FC5556",
"*	c #FF0000",
"=	c #639414",
"-	c #395F1B",
";	c #A1D700",
">	c #8DC002",
",	c #C5FF00",
"'	c #82A31A",
")	c #90B51E",
"!	c #87AA1B",
"~	c #8AAD1D",
"{	c #8AAE1C",
" .  .  +  ..  .  @ .    #      .",
"  .. .  # +     .  . @  .+ + .. ",
"...  . .   @ . +  .  .  .   .  .",
".  #  . @ .@ . # .+.  .   . @ + ",
" +#  .    .     .   #+ . @.. .#+",
" +   . ++   +    @ . # + @. @  #",
"   .@ . #+ + @. .@.   #..   .  .",
" @  @. . #.+.@ .  ..     .   .. ",
". . .  ....  ..@ .  @. . #  +  .",
" . .#+   .    ..   .@     +..   ",
".@.  #+ +  .$$%%%$$  . .     .. ",
".@    #+  .$&%*%*%%$   . . .@.  ",
" .. . .  .$&$*&$%*$*$.. .@.     ",
" .  . .@  $*&$%**%&*$  #  .  + .",
"  +  + @. $%**%%%%*%$.  #+  +#  ",
".  + +   # $%$&&&*%$.@   #+ #  .",
" . .   .  +=$%***%$- @ . .# . @ ",
" .   @.   =;;$%%$$>>-.       .  ",
"   +   .   =>;>-->--    .  .   @",
" +#  . @ .>=--;>=->>- +  .@. #  ",
"+#  .. @ >;,,;-->=;;>-. . @   + ",
"#      .  >;,,;>-;>--  . . .. # ",
" . .  +  . ==>,;->-').  @.  @  .",
".   . # + . )===--!~         .  ",
" @ @.  ..  @.){{{)   + .  +   . ",
"  .@  .  .   .  .@.   #+ +#  .@ ",
" .      . +     .   .. # #..   .",
"  #  + + .#+  +    . @   ..  .  ",
" +.  #+  . # +.. +      . @  + .",
"+#  . #...  .  @  #+  +   @.  + ",
"# .   .  @    . .  # +  @.  . # ",
"   . .. .  + .. . . . ..  .  .. "};
