/* XPM */
static char * C:\Users\hydra\OneDrive\Desktop\dot_xpm[] = {
"32 32 8 1",
" 	c None",
".	c #507417",
"+	c #395F1B",
"@	c #8DC002",
"#	c #639414",
"$	c #830002",
"%	c #D8171A",
"&	c #E35D5F",
"                                ",
"                                ",
"                                ",
"                                ",
"               ..++             ",
"              .@@#.+ ++         ",
"             .@@#+.+#@.+        ",
"           .+  ++$@++##.+       ",
"          .#.+ %&%@@%+++        ",
"         .@@#.+$%$#@%&% ..+     ",
"        .@@#.$ #@++#$%$.+@#.+   ",
"           %&%#@.+#+.##+ +@#.+  ",
"          .$%$#.+%$+++.@.%..+   ",
"         .@@.+ +%&%+  +#@%&%    ",
"          .@#.. $%$+ $%+#$%$    ",
"         .@#+%$.#.#..%&%+       ",
"         .#+%&%@@+#+.$%$        ",
"          + $%.@+ #+ ..         ",
"              .+  .+  .         ",
"                                ",
"                                ",
"                                ",
"                                ",
"                                ",
"                                ",
"                                ",
"                                ",
"                                ",
"                                ",
"                                ",
"                                ",
"                                "};
