/* XPM */
static char * C:\Users\hydra\OneDrive\Desktop\fllor_xpm[] = {
"32 32 6 1",
" 	c None",
".	c #ACD62A",
"+	c #A5CE2A",
"@	c #B9E236",
"#	c #9FC529",
"$	c #B3DD35",
"                                ",
".+..+..@..++..+..#.+....$......+",
"..++.+..$.@.....+..+.#..+@.@.++.",
"+++..+.+...#.+.@..+..+..+...+..+",
"+..$..+.#.+#.+.$.+@+..+...+.#.@.",
".@$..+....+.....+...$@.+.#++.+$@",
".@...+.@@...@....#.+.$.@.#+.#..$",
"...+#.+.$@.@.#+.+#+...$++...+..+",
".#..#+.+.$+@+#.+..++.....+...++.",
"+.+.+..++++..++#.+..#+.+.$..@..+",
".+.+$@...+....++...+#.....@++...",
"+#+..$@.@..+.+...@...+.+.....++.",
"+#....$@..+...+...@....+.+.+#+..",
".++.+.+..+..$..@+.$.@++.+#+.....",
".+..+.+#.....@+$+..+...$..+..@.+",
"..@..@.#+..+.....+.+.+..$@..@$..",
"+..@.@...$...+.++...+#...$@.$..+",
".+.+...+..@...++..#..#.+.+$.+.#.",
".+...#+...$.@..#+....+.......+..",
"...@...+...+..+#..@.....+..+...#",
".@$..+.#.+..+....+$@..@..+#+.$..",
"@$..++.#.#+....+.+.$+@+.+.#...@.",
"$......+...+.@....++...+.+.++.$.",
".+.+..@..+...$@..@...+..#+..#..+",
"+...+.$.@.+...$+@+.+.........+..",
".#.#+..++..#+........@.+..@...+.",
"..+#..+..+...+..+#+...$@.@$..+#.",
".+......+.@.....+...++.$.$++...+",
"..$..@.@.+$@..@....+.#...++..+..",
".@+..$@..+.$.@++.@......+.#..@.+",
"@$..+.$+++..+..#..$@..@...#+..@.",
"$.+...+..#....+.+..$.@..#+..+.$."};
