/* XPM */
static char * C:\Users\hydra\OneDrive\Desktop\Programing\cursus\SLG\solong\img\logo_xpm[] = {
"32 32 151 2",
"  	c #853A3A",
". 	c #783031",
"+ 	c #772F30",
"@ 	c #773031",
"# 	c #742E2F",
"$ 	c #753232",
"% 	c #703030",
"& 	c #7A3535",
"* 	c #762F30",
"= 	c #803838",
"- 	c #6C2E2E",
"; 	c #451B1B",
"> 	c #411919",
", 	c #5D2727",
"' 	c #7C3636",
") 	c #843939",
"! 	c #7F3737",
"~ 	c #833939",
"{ 	c #743232",
"] 	c #4C1E1E",
"^ 	c #180505",
"/ 	c #110303",
"( 	c #341212",
"_ 	c #692C2C",
": 	c #783333",
"< 	c #632A2A",
"[ 	c #592525",
"} 	c #813838",
"| 	c #311111",
"1 	c #060101",
"2 	c #000000",
"3 	c #5C2626",
"4 	c #763333",
"5 	c #552323",
"6 	c #250B0B",
"7 	c #230A0A",
"8 	c #491D1D",
"9 	c #843A3A",
"0 	c #752E2F",
"a 	c #552020",
"b 	c #270C0C",
"c 	c #030101",
"d 	c #150404",
"e 	c #572323",
"f 	c #6E2B2C",
"g 	c #541F20",
"h 	c #290B0C",
"i 	c #280C0C",
"j 	c #6A2D2D",
"k 	c #712D2E",
"l 	c #5D2424",
"m 	c #431718",
"n 	c #562323",
"o 	c #723131",
"p 	c #7E3636",
"q 	c #622929",
"r 	c #1F0708",
"s 	c #020000",
"t 	c #1B0606",
"u 	c #4F1D1E",
"v 	c #773333",
"w 	c #220909",
"x 	c #823939",
"y 	c #6E2F2F",
"z 	c #3C1616",
"A 	c #512020",
"B 	c #6D2E2E",
"C 	c #2D0F0F",
"D 	c #090202",
"E 	c #321111",
"F 	c #642A2A",
"G 	c #733131",
"H 	c #2B0C0D",
"I 	c #662829",
"J 	c #1D0707",
"K 	c #2B0E0E",
"L 	c #652A2A",
"M 	c #522121",
"N 	c #6F2F2F",
"O 	c #2E0F0F",
"P 	c #130404",
"Q 	c #471C1C",
"R 	c #7B3535",
"S 	c #5A2525",
"T 	c #200909",
"U 	c #612828",
"V 	c #5F2727",
"W 	c #823838",
"X 	c #421919",
"Y 	c #391515",
"Z 	c #662B2B",
"` 	c #2A0D0D",
" .	c #1A0606",
"..	c #532121",
"+.	c #7D3636",
"@.	c #803737",
"#.	c #713030",
"$.	c #4B1E1E",
"%.	c #542222",
"&.	c #401818",
"*.	c #592424",
"=.	c #793434",
"-.	c #582424",
";.	c #2F1010",
">.	c #0F0303",
",.	c #682C2C",
"'.	c #3E1717",
").	c #2C0E0E",
"!.	c #461B1B",
"~.	c #6B2D2D",
"{.	c #0C0202",
"].	c #240A0A",
"^.	c #602828",
"/.	c #4F1F1F",
"(.	c #1F0808",
"_.	c #502020",
":.	c #672B2B",
"<.	c #3A1515",
"[.	c #4A1B1B",
"}.	c #2A0C0C",
"|.	c #120303",
"1.	c #351313",
"2.	c #1E0808",
"3.	c #481A1A",
"4.	c #672829",
"5.	c #722D2E",
"6.	c #5F2525",
"7.	c #381213",
"8.	c #411617",
"9.	c #6B2A2B",
"0.	c #6E2C2C",
"a.	c #5E2425",
"b.	c #521E1F",
"c.	c #5D2324",
"d.	c #4A1D1D",
"e.	c #260B0B",
"f.	c #371414",
"g.	c #361313",
"h.	c #552222",
"i.	c #572424",
"j.	c #391313",
"k.	c #371212",
"l.	c #732E2F",
"m.	c #7A3434",
"n.	c #6D2B2C",
"o.	c #4F2020",
"p.	c #381414",
"q.	c #1E0707",
"r.	c #170505",
"s.	c #250A0A",
"t.	c #7E3737",
"                                                                ",
"                                                                ",
"                                                                ",
"                                                  . . . . .     ",
"                . . .     + + @               . .           . . ",
". . . . . . . .       @ # $ % & * . . . . . .                   ",
"                      = - ; > , '     ) = ! ~                   ",
"                    ) { ] ^ / ( _ ~ ~ : < [ - }                 ",
"                    ~ < | 1 2 ^ 3 ! 4 5 6 7 8 { )               ",
"          9 } ! 0 * # a b c 2 d e f g h 1 c i j ~               ",
". . . . . k l m n o p q r s s t u v > / 2 2 w - x               ",
"        ~ y z d w A 4 B C c D E F G C c 2 1 H I *             . ",
"        x 3 J 2 1 K L v M 7 6 M 4 N O c 2 P Q R ) . . . . . .   ",
"        } S T c 2 ^ S R $ U V { W { X d / Y L p & R } 9         ",
"        } Z ` c 2  ...+.~ @.! p } +.q X > F #.L $.z %.v )       ",
"        ) $ &.P 1 b *.= x =.j V U N v o v =.-.;.d >.C _ }       ",
"          = ,.'.` ] % } { ..b T ).!.~.} = y | {.2 c ].^.@.      ",
"            @.G _ G +.% /.(.c c 1  ._.R ' 3  .2 2 D ( :.W       ",
". .           ) } =._ !.T c 2 2 2 D <.N +.-.^ 2 1 (.M =.9     . ",
"    . . .   9 @.y [.}.|.s 2 2 2 2 c 7 F p :.1.2.C 3.4.* . . .   ",
"          . 5.6.7.^ 1 2 2 2 2 2 2 2 |.8.9.0.a.b.c.=.W           ",
"          ) G d.d 2 2 2 2 2 2 2 2 2 1 e.*.R W W W 9             ",
"          ~ j f.D 2 2 2 2 2 2 2 2 2 2 {.O ^.!                   ",
"          ~ % g.D 2 2 2 2 2 2 2 2 2 2 2 >.'.G )                 ",
"          9 R h.].{.{./ P >.1 c 2 2 2 2 c b y ~                 ",
".           x $ i.j.k.] A Q g.7 P D c 2 1 | o ~       . . . . . ",
"  . . .     . + l.& m.n.0.n.4.< o.p.q.r.s.[.+.9 . . .           ",
"        . .       9 9 9 9 9 ~ 5.9.l i.A U v + .                 ",
"                                9 ~ } t.@.)                     ",
"                                                                ",
"                                                                ",
"                                                                "};
