/* XPM */
static char * C:\Users\hydra\OneDrive\Desktop\Programing\cursus\SLG\solong\img\menu_xpm[] = {
"128 32 97 2",
"  	c None",
". 	c #2B1C23",
"+ 	c #874F45",
"@ 	c #854E44",
"# 	c #844D43",
"$ 	c #864E44",
"% 	c #804B41",
"& 	c #834D43",
"* 	c #7D433D",
"= 	c #42241F",
"- 	c #371D18",
"; 	c #56302A",
"> 	c #7A473E",
", 	c #7C433D",
"' 	c #3F1F1B",
") 	c #000000",
"! 	c #60322E",
"~ 	c #7D493F",
"{ 	c #7D483F",
"] 	c #7E4940",
"^ 	c #824C42",
"/ 	c #5E352E",
"( 	c #7F4A40",
"_ 	c #6D3F36",
": 	c #6C3E36",
"< 	c #58312B",
"[ 	c #60372F",
"} 	c #7C483F",
"| 	c #57312A",
"1 	c #663A32",
"2 	c #090302",
"3 	c #553029",
"4 	c #683C34",
"5 	c #58322B",
"6 	c #663B33",
"7 	c #030101",
"8 	c #683732",
"9 	c #6D3F37",
"0 	c #6D3934",
"a 	c #4C2A24",
"b 	c #2E1814",
"c 	c #401F1C",
"d 	c #64342F",
"e 	c #532F28",
"f 	c #78463D",
"g 	c #492521",
"h 	c #3A1F1A",
"i 	c #6F4038",
"j 	c #854D44",
"k 	c #512D27",
"l 	c #532E28",
"m 	c #864F45",
"n 	c #321A16",
"o 	c #1A0908",
"p 	c #3A1C19",
"q 	c #773F3A",
"r 	c #79403B",
"s 	c #966E59",
"t 	c #472721",
"u 	c #4B2A24",
"v 	c #6E3F37",
"w 	c #7F4A41",
"x 	c #693C34",
"y 	c #834C43",
"z 	c #75443B",
"A 	c #613730",
"B 	c #1D0D0A",
"C 	c #73433A",
"D 	c #79463D",
"E 	c #6B3D35",
"F 	c #613830",
"G 	c #5F362F",
"H 	c #482822",
"I 	c #6E4037",
"J 	c #27130F",
"K 	c #7B483F",
"L 	c #40231D",
"M 	c #5C342D",
"N 	c #76453C",
"O 	c #5B332C",
"P 	c #351916",
"Q 	c #45212A",
"R 	c #3F1F1C",
"S 	c #56312A",
"T 	c #22100D",
"U 	c #5A332C",
"V 	c #542F29",
"W 	c #452620",
"X 	c #462721",
"Y 	c #74433B",
"Z 	c #7D4940",
"` 	c #563029",
" .	c #7A423C",
"..	c #753E39",
"+.	c #733D38",
"@.	c #7B423C",
"#.	c #7C423C",
"                                                                                                                                                                                                                                                                ",
"                                                                                                                                                                                                                                                                ",
"                        . . . . . . . . . . . . . . . . . . . . . . . . . . . . . . . . . . . . . . . . . . . . . . . . . . . . . . . . . . . . . . . . . . . . . . . . . . . . . . . . . . . . . . . . . . . . . . . . . . . . . .                             ",
"                    . . + + + + + + + @ # $ + + + + + + + + + + + + + + + + + + + + + + + + + + + + + + + + + + + + + + + + + + + + + + + + + + + + + + + + + + + + + + + + + + + + + + + + + + + + + + + + + + + + + + + + + + + + . .                         ",
"                . . + + + + + + + $ % % % % & + + * * * * * + + + + + + + + + + + + + + + + + + + + + + + + + + + * * * * * + + + + + + + + + + + + + + + + * * * * * + + + + + + + + + + + + + + + + + + + + + + + + + + + + + + + + + . .                     ",
"              . + + * + + * * * + % % = - ; > , * + + + + + * * + + + + + + + + * * * + + * * * + + + + + + + * * + + + + + * * + + + + + + + + * + + + * * + + + + + * * + + + + + + + + * * * + + * * * + * * * + + * * * + + + + + + + * .                   ",
"            . + + + + * * + + + % % ' ) ) ) ! # + & ~ { & + + + * * * * * * * * + + + * * + + + * * * * * * * + + + + + + + + + * * * * * * * * + * * * + + + + + + + + + * * * * * * * * + + + * * + + + * + + + * * + + + * * * * * * * + + .                 ",
"          . + + + + + # ] % # + ^ / ) ) ) ) ) ^ ( _ ) ) : # + + + + + + + + + + + + + + + + + + + + + + + + + + + + + + + + + + + + + + + + + + + + + + + + + + + + + + + + + + + + + + + + + + + + + + + + + + + + + + + + + + + + + + + + + + .               ",
"        . + + + + + # % < ) [ } ] | ) ) ) ) ) ~ 1 ) 2 ) ) > + + + + + + + + + + + + + + + + + + + + + + + + + + + + + + + + + + + + + + + + + + + + + + + + + + + + + + + + + + + + + + + + + + + + + + + + + + + + + + + + + + + + + + + + + + + .             ",
"      . + + + + + + % 3 ) ) ) 4 > 5 ) ) ) ) 6 % ) ) ) 7 ) ) + + + + + + + + + + + + + + + + + + + + + + + + + + + + + + + + + + + + + + + + + + + + + + + + + + + + + + + + + + + + + + + + + + + + + + + + + + + + + + + + + + + + + + + + + + + + .           ",
"      . + + + + * * 8 ) ) ) ) ) % % ) ) ) ) % % ) ) ) ) ) ) + + + + + + + + + + * * * * + + + + + * * * + + + + + + + + + + + + + + + + + + + + * + + + + + + + + + + + + + + + + + + + + * * * * + + + + + * * * * + + + + + * * * + + + + + + + + .           ",
"    . + + * * * + $ 9 ) ) ) ) ) 0 % a b c d % e 7 ) ) ) ) ( + + * * * * * * * * + + + + * * * * * + + + * * + + + + + + + + + + * * * * * * * * + * * + + + + + + + + + + * * * * * * * * + + + + * * * * * + + + + * * * * * + + + * * + + + + + + + .         ",
"    . + + + + + + $ % ) ) ) ) ) f % % % % ^ % g ) ) ) h i j + * + + + + + + + + + + + + + + + + + + + + + + * * * + + + + + + * + + + + + + + + + + + * * * + + + + + + * + + + + + + + + + + + + + + + + + + + + + + + + + + + + + + + * * * + + * * .         ",
"  . + + + + + + + + % k ) ) ) l ( m # % ( % % % n o p % % q r m + + + + + + + + + + + + + + + + + + + + + + + + + * * * * * * + + + + + + + + + + + + + + + * * * * * * + + + + + + + + + + + + + + + + + + + + + + + + + + + + + + + + + + + * * + + s .       ",
"  . + + + + + + + + # % t ) u v # w % % % % % % % % % % x ) ) : % % + + + + + + + + + + + + + + + + + + + + + + + + + + + + + + + + + + + + + + + + + + + + + + + + + + + + + + + + + + + + + + + + + + + + + + + + + + + + + + + + + + + + + + + + + s .       ",
"  . + + + + + + + + + y % % z ( f A ) ) B % % % % % % e ) ) ) ) C @ + + + + + + + + + + + + + + + + + + + + + + + + + + + + + + + + + + + + + + + + + + + + + + + + + + + + + + + + + + + + + + + + + + + + + + + + + + + + + + + + + + + + + + + + + s .       ",
"  . + + + + + + + + + + % % D E ) ) ) ) ) ) n % # % F ) ) ) 7 ) : # + + + + + + + + + + + + + + + + + + + + + + + + + + + + + + + + + + + + + + + + + + + + + + + + + + + + + + + + + + + + + + + + + + + + + + + + + + + + + + + + + + + + + + + + + s .       ",
"  . + + + + + + + + + y % % u ) ) 7 ) ) ) ) ) G ( % H ) ) ) ) ) I @ + + + + + + + + + + + + + + + + + + + + + + + + + + + + + + + + + + + + + + + + + + + + + + + + + + + + + + + + + + + + + + + + + + + + + + + + + + + + + + + + + + + + + + + + + s .       ",
"  . + + + + + + + + ^ % % J ) ) ) ) ) ) ) ) ) ) K % L ) ) ) ) M % + + + + + + + + + + + + + + + + + + + + + + + + + + + + + + + + + + + + + + + + + + + + + + + + + + + + + + + + + + + + + + + + + + + + + + + + + + + + + + + + + + + + + + + + + + s .       ",
"  . . * + + + + + % % % ) ) ) ) ) ) ) ) ) ) ) ) N f % ) ) ) O % % * + + + + + + + + + + + + + + + + + + + + + + + + + + + + + * * * + + + + + + + + + + + + + + + + + + * * * + + + + + + + + + + + + + + + + + + + + + + + + + + + + + + + + + + * s . .       ",
"  . . + * + + + + % % P ) ) ) ) ) ) ) ) ) ) ) ) 1 % % % % % % @ + + * * * + + + + * * * * + + + + + + + + + + + + * * * * * * + + + * * * + + + + + + + + + * * * * * * + + + * * * + + + + * * * * + + + + + * * * * + + + + + + + + + + + + * * + s . .       ",
"  . Q . + * * * * @ % h ) ) ) ) ) ) ) ) ) ) ) ) R % j # % # m + + + + + + * * * * + + + + * + + + + * * * * * * * + + + + + + + + + + + + * * * * * * * * * + + + + + + + + + + + + * * * * + + + + * + + * * + + + + * + + + + * * * * * * * + + s . Q .       ",
"  . Q . + + + + + m % S ) ) 7 ) ) ) ) ) ) ) ) ) T U % + + + + + + + + + + + + + + + + + + + * * * * + + + + + + + + + + + + + + + + + + + + + + + + + + + + + + + + + + + + + + + + + + + + + + + + + * * + + + + + + + * * * * + + + + + + + + + s . Q .       ",
"    . Q . + + + + + # % V h ) ) ) ) ) ) ) ) ) ) ) W % + + + + + + + + + + + + + + + + + + + + + + + + + + + + + + + + + + + + + + + + + + + + + + + + + + + + + + + + + + + + + + + + + + + + + + + + + + + + + + + + + + + + + + + + + + + + + s . Q .         ",
"    . Q . + + + + + % % % % % % G G ) ) ) ) ) ) ) X % + + + + + + + + + + + + + + + + + + + + + + + + + + + + + + + + + + + + + + + + + + + + + + + + + + + + + + + + + + + + + + + + + + + + + + + + + + + + + + + + + + + + + + + + + + + + + s . Q .         ",
"      . Q . + + + + + + + $ @ j % % Y G ) ) ) ) ) % % + + + + + + + + + + + + + + + + + + + + + + + + + + + + + + + + + + + + + + + + + + + + + + + + + + + + + + + + + + + + + + + + + + + + + + + + + + + + + + + + + + + + + + + + + + + + s . Q .           ",
"        . Q . + + * * + + + + + + + j Z v ` ) ) % % $ * * * * * * + + + + + + + + * * + + + + + + + + + + + + + + + + * * * * * * + + + + + + + + + + + + + + + * * * * * * + + + + + + + + * * + + + + + + + * * + + + + + + + + + + + + + s . Q .             ",
"          . Q . * + + * * * * + + + * *  ...z C +.@.* + + + + + + * * * + + * * * + + * * * * + + + * * * * + + * * * + + + + + + * * * + + * * * * * + + * * * + + + + + + * * * + + * * * + + * * * * + * * + + * * * * + + + * * * + s s . Q .               ",
"            . Q . . + + + + + * * * + + + + * #.+ + + + + + + + + + + + * * + + + + + + + + + * * * + + + + * * + + + + + + + + + + + + * * + + + + + * * + + + + + + + + + + + + * * + + + + + + + + + * + + + + + + + + * * * + + s s . . Q .                 ",
"              . Q Q . . s s s s s s s s s s s s s s s s s s s s s s s s s s s s s s s s s s s s s s s s s s s s s s s s s s s s s s s s s s s s s s s s s s s s s s s s s s s s s s s s s s s s s s s s s s s s s s s s s s s s s s . . Q Q .                   ",
"                . . Q Q . . . . . . . . . . . . . . . . . . . . . . . . . . . . . . . . . . . . . . . . . . . . . . . . . . . . . . . . . . . . . . . . . . . . . . . . . . . . . . . . . . . . . . . . . . . . . . . . . . . . . . Q Q . .                     ",
"                    . . Q Q Q Q Q Q Q Q Q Q Q Q Q Q Q Q Q Q Q Q Q Q Q Q Q Q Q Q Q Q Q Q Q Q Q Q Q Q Q Q Q Q Q Q Q Q Q Q Q Q Q Q Q Q Q Q Q Q Q Q Q Q Q Q Q Q Q Q Q Q Q Q Q Q Q Q Q Q Q Q Q Q Q Q Q Q Q Q Q Q Q Q Q Q Q Q Q Q Q Q Q Q . .                         "};
