/* XPM */
static char * C:\Users\hydra\OneDrive\Desktop\Programing\cursus\SLG\solong\img\menubar_xpm[] = {
"32 32 2 1",
" 	c #853A3A",
".	c #783031",
"                                ",
"                                ",
"                                ",
"                         .....  ",
"        ...  ...       ..     ..",
"........   ..   .......         ",
"                                ",
"                                ",
"                                ",
"        ....     ...            ",
"........    .....   ..          ",
"                      ...      .",
"                         ...... ",
"                                ",
"                                ",
"                                ",
"                                ",
"                                ",
"..                             .",
"  ...    ....            ...... ",
"     ....    .    .......       ",
"              ....              ",
"                                ",
"                                ",
"                                ",
".        ..                .....",
" ...  ...  ....   ....  ...     ",
"    ..         ...    ..        ",
"                                ",
"                                ",
"                                ",
"                                "};
