/* XPM */
static char * C:\Users\hydra\OneDrive\Desktop\Programing\cursus\SLG\solong\img\title_xpm[] = {
"194 32 165 2",
"  	c #853A3A",
". 	c #783031",
"+ 	c #803737",
"@ 	c #783434",
"# 	c #7B3535",
"$ 	c #843A3A",
"% 	c #833939",
"& 	c #7A3535",
"* 	c #7E3636",
"= 	c #431818",
"- 	c #000000",
"; 	c #070101",
"> 	c #622929",
", 	c #0E0202",
"' 	c #521E1F",
") 	c #2F0E0F",
"! 	c #7F3737",
"~ 	c #090202",
"{ 	c #150404",
"] 	c #672B2B",
"^ 	c #762F30",
"/ 	c #6F2C2D",
"( 	c #0A0202",
"_ 	c #160404",
": 	c #6B2D2D",
"< 	c #7D3636",
"[ 	c #3C1616",
"} 	c #793434",
"| 	c #441818",
"1 	c #1D0707",
"2 	c #632A2A",
"3 	c #250B0B",
"4 	c #843939",
"5 	c #3B1616",
"6 	c #6D2B2C",
"7 	c #712D2E",
"8 	c #682C2C",
"9 	c #361313",
"0 	c #030101",
"a 	c #813838",
"b 	c #2E0F0F",
"c 	c #502020",
"d 	c #4B1E1E",
"e 	c #582424",
"f 	c #0C0202",
"g 	c #0F0303",
"h 	c #592424",
"i 	c #823939",
"j 	c #441A1A",
"k 	c #3D1717",
"l 	c #4C1E1E",
"m 	c #6E2F2F",
"n 	c #311111",
"o 	c #110303",
"p 	c #542222",
"q 	c #371414",
"r 	c #160505",
"s 	c #2C0E0E",
"t 	c #280C0C",
"u 	c #5A2525",
"v 	c #612929",
"w 	c #5E2727",
"x 	c #652A2A",
"y 	c #823838",
"z 	c #240A0A",
"A 	c #6C2E2E",
"B 	c #331212",
"C 	c #1B0707",
"D 	c #461B1B",
"E 	c #471B1B",
"F 	c #421919",
"G 	c #4E1F1F",
"H 	c #220909",
"I 	c #290D0D",
"J 	c #662B2B",
"K 	c #4D1E1E",
"L 	c #522121",
"M 	c #4A1D1D",
"N 	c #230A0A",
"O 	c #260B0B",
"P 	c #4F1F1F",
"Q 	c #180505",
"R 	c #713030",
"S 	c #401818",
"T 	c #301010",
"U 	c #602828",
"V 	c #7C3636",
"W 	c #270C0C",
"X 	c #642A2A",
"Y 	c #2D0F0F",
"Z 	c #723131",
"` 	c #753232",
" .	c #803838",
"..	c #341313",
"+.	c #7C3535",
"@.	c #060101",
"#.	c #7E3737",
"$.	c #702C2D",
"%.	c #441819",
"&.	c #652728",
"*.	c #6F2F2F",
"=.	c #763333",
"-.	c #3A1515",
";.	c #69292A",
">.	c #742E2F",
",.	c #391515",
"'.	c #632929",
").	c #743232",
"!.	c #692C2C",
"~.	c #1F0808",
"{.	c #582122",
"].	c #411717",
"^.	c #562323",
"/.	c #4A1B1B",
"(.	c #2A0C0C",
"_.	c #733131",
":.	c #632627",
"<.	c #210808",
"[.	c #5C2324",
"}.	c #4D1C1D",
"|.	c #752F30",
"1.	c #270A0B",
"2.	c #230909",
"3.	c #6C2A2B",
"4.	c #2F0E0E",
"5.	c #2D0D0E",
"6.	c #341212",
"7.	c #5F2425",
"8.	c #1E0707",
"9.	c #200909",
"0.	c #552020",
"a.	c #4C1C1C",
"b.	c #783333",
"c.	c #4E1C1D",
"d.	c #552323",
"e.	c #722D2E",
"f.	c #1E0808",
"g.	c #5D2424",
"h.	c #5E2425",
"i.	c #572323",
"j.	c #3D1515",
"k.	c #321010",
"l.	c #100303",
"m.	c #692D2D",
"n.	c #622627",
"o.	c #662829",
"p.	c #351112",
"q.	c #310F0F",
"r.	c #24090A",
"s.	c #200808",
"t.	c #6E2B2C",
"u.	c #3F1818",
"v.	c #7A3434",
"w.	c #2B0E0E",
"x.	c #773333",
"y.	c #572424",
"z.	c #381414",
"A.	c #130404",
"B.	c #6A292A",
"C.	c #2A0D0D",
"D.	c #532121",
"E.	c #532222",
"F.	c #411919",
"G.	c #1A0606",
"H.	c #612828",
"                                                                                                                                                                                                                                                                                                                                                                                                    ",
"                                                                                                                                                                                                                                                                                                                                                                                                    ",
"                                                                                                                                                                                                                                                                                                                                                                                                    ",
". .                                                     . . . . .                                                           . . . . .                                                       . . . . .                                                     . . . . .                                                                   . . . . .                                         . . . . .   ",
"    .                 . . .     . . .               . .           . .                     . . .     . . .               . .           . .                 . . .     . . .               . .           .                 . . .     . . .               . .           . .                             . . .     . . .               . .           . .   . . .     . . .               . .           . ",
"      . . . . . . . .       . .       . . . . . . .                   . . . . . . . . . .       . .       . . . . . . .                   . . . . . . . .       . .       . . . . . . .                 . . . . . . . .       . .       . . . . . . .                               . . . . . . . .       . .       . . . . . . .                   .       . .       . . . . . . .                 ",
"                                                                                                                                                                                                                                                                        . . . . . .                                                                                                                 ",
"                                                                                                                                                                                                                                                                                                                                                                                                    ",
"                                                                                                                                                                                                                                                                                                                                                      + @ @ @ # $ % @ @ @ & & @ @ @ %               ",
"                      . . . .           . . .                                             . . . .           . . .                                         . . . .           . . .                                       . . . .           . . .                                                     . . . .           . . .                         * = - - ; > % # - - , ' ) - - - @               ",
"  .   . . . . . . . .         . . . . .       . .                     . . . . . . . . . .         . . . . .       . .                     . . . . . . . .         . . . . .       . .                   . . . . . . . .         . . . . .       . .                                 . . . . . . . .         . . . . .       . .                   ! = ~ - { ] ^ . / ( _ : < [ - - - }               ",
".                                                 . . .             .                                                 . . .             .                                             . . .                                                         . . .             . . . . . . .                                             . . .           ! | - - 1 2 %     # 3 ] 4 * 5 - - - 6 .             ",
"    .                                                   . . . . . .                                                         . . . . . .                                                     . . . . . .                                                   . . . . . .                                                                 . . . . 7 = - - { 2 4       * 8 $   * 9 - - 0 }   . . . . . . ",
"                                                                                                                                                                                                                                                                        a b c                                                               ! d ~ - { ] %         $ $   4 e f - g h i               ",
"        j - - - - - k < - c                                           < - l                               m n o 8                                                 i - j   i - j                   < - c                                                                 a b c                                           i - j             ! l - - 1 2 %               i e ~ - g p i                 ",
"        j - - - - - k < - c                                           < - l                               q r + %                                                 i - j   i - j             s t   < - c                                                                                                                 i - j           * d - - { 2 4               i u o - ~ h i                   ",
"            v - w     < - c                                           < - l                               s t                                                     i - j   i - j             s t   < - c                                                                                                                 i - j         + d ~ - o x y 4 4 4 4 4 4   $ e o - f e a                     ",
"  .         v - w     < - j l z t w     A B C D E - < < - F G H I w   < - l   J - K a L H 3 8           M - - - a # d N O P <   < - c w Q R         A B C D E - < i - j   i - j           F - - S < - j l z t w     } D 1 T U $           A B C D E - < < - F G H I w   i - j   V - S M C W X L z Y A     A B C D E - < i - j         } - - - - ~ g g g g g g t Z # o - - Y @   4 8 <               ",
".     . .   v - w     < - Q `  ...- +.& @.5 #.} N - < < - Q `  ...- $.7 - %.&.@.E % X - *.=.@.}           s t   ! O -.* # T T a < - q - - / .     & @.5 #.} N - < i - j   i - j             s t   < - Q ;.>...- +.! N ,.! : - '.        & @.5 #.} N - < < - Q `  ...- $.i - j   V - { 6 Z - 0 ).< o O   & @.5 #.} N - < i - j         } - - - - - - - - - - - N R # f - - Y }   !.~.@               ",
"    .     . {.- w     < - ].. . L - @ ] - !.    ^.- < < - ].. . /.- @ < - q r (.^ . _.{ B ] >.. . .       s t   8 - !.    > - :.7 - <./       . . [.- !.    }.- 7 |.- j   i - j             1.2.. 7 - ].    /.- 3.8 - J   . <.4..       ] - !.    ^.- < < - ].. . /.- @ |.- j   V - D   ^ - 5.    6.{ . [.- 7.    ^.- < i - j         6 - ; ; ; ; ~ ~ ~ - - - 8.R # f - - Y } ] 9.- }   . . . . . . ",
"            v - 0.. . 7 - l     a.- b.] - 7.. . c.- 7 7 - l     d.- b.< - M j - A   . e.{.2.f.@     .     s t . g.- h.. . {.- m < - M             ] - 7.. . i.- < i - j   i - j.. . . . . . s t   < - l     d.- b.g.- - - - - o   .     ] - 7.. . c.- 7 7 - l     d.- b.i - j.. $.- G   $ - k . . k.l.  ] - m..   i.- < |.- j.. . . . a m m m m m m :.n.f - - N o.V s I I p.{.q.r.s.t..             ",
"            v - w     < - l     d.- 3./ ( u.! v.O - < < - l     d.- b.< - l ! w.{ x.w Y + ] - 8       . . 1.2.  ! 3 -.* # T b a < - l             # f u.! v.O - < i - j.. |.- j             s t   < - l     d.- b.< Q y.%           . . / ( u.! v.O - < < - l     d.- b.i - j   V - G   $ - k     z.A.  # f u.! t.<.- 7 i - j                         $ A.- - N R ^ B.B.B.=.x.` ` ` i               ",
"            v - w     < - l     d.- b.  m B Q u.u.- < < - l     d.- b.< - l   =.g C.V D.1 N E.%           s t     & M H 3 G V   < - l               m B Q u.u.- < i - j   i - j             s t   < - l     d.- b.  ` F.G.1 E b.          m B Q u.u.- < < - l     d.- b.i - j   V - G   $ - k     z.A.    m B Q u.u.- < i - j                         4 o - - N R                                   ",
"                                                                                                                                                                                                                                                                                  a                                                                   4 o - - N R                                   ",
". .                                                                                                                                                                                                                                                                                                                                                     > H.H.X +.                                  ",
"    . .                 . .                                 . . . . . . . .                 . .                                 . . . . . .                 . .                                 . . . . .                 . .                                 . . . . .             .                 . .                                 . . . . .     . .                                 . . . . ",
"        . . .     . . .     . . . .       . . . .     . . .                 . . .     . . .     . . . .       . . . .     . . .             . . .     . . .     . . . .       . . . .     . . .           . . .     . . .     . . . .       . . . .     . . .           .             . . .     . . .     . . . .       . . . .     . . .           . .     . . . .       . . . .     . . .         ",
"              . .                   . . .         . .                             . .                   . . .         . .                         . .                   . . .         . .                       . .                   . . .         . .                   . . .             . .                   . . .         . .                                 . . .         . .               ",
"                                                                                                                                                                                                                                                                                . .                                                                                                                 ",
"                                                                                                                                                                                                                                                                                                                                                                                                    ",
"                                                                                                                                                                                                                                                                                                                                                                                                    ",
"                                                                                                                                                                                                                                                                                                                                                                                                    "};
