/* XPM */
static char * C:\Users\hydra\OneDrive\Desktop\Programing\cursus\SLG\solong\img\title_xpm[] = {
"194 32 173 2",
"  	c #853A3A",
". 	c #783031",
"+ 	c #803737",
"@ 	c #783434",
"# 	c #7B3535",
"$ 	c #843A3A",
"% 	c #833939",
"& 	c #7A3535",
"* 	c #7E3636",
"= 	c #4B1E1E",
"- 	c #000000",
"; 	c #090202",
"> 	c #622929",
", 	c #110303",
"' 	c #5B2525",
") 	c #351313",
"! 	c #7F3737",
"~ 	c #150404",
"{ 	c #672B2B",
"] 	c #0C0202",
"^ 	c #1A0606",
"/ 	c #6B2D2D",
"( 	c #7D3636",
"_ 	c #3C1616",
": 	c #793434",
"< 	c #4C1E1E",
"[ 	c #1D0707",
"} 	c #632A2A",
"| 	c #250B0B",
"1 	c #843939",
"2 	c #3B1616",
"3 	c #682C2C",
"4 	c #361313",
"5 	c #030101",
"6 	c #582424",
"7 	c #0F0303",
"8 	c #592424",
"9 	c #823939",
"0 	c #742E2F",
"a 	c #2E0F0F",
"b 	c #481A1A",
"c 	c #732E2E",
"d 	c #441818",
"e 	c #542222",
"f 	c #441A1A",
"g 	c #371212",
"h 	c #712D2E",
"i 	c #6E2F2F",
"j 	c #311111",
"k 	c #502020",
"l 	c #813838",
"m 	c #3D1515",
"n 	c #772F30",
"o 	c #5A2525",
"p 	c #070101",
"q 	c #501D1E",
"r 	c #762F30",
"s 	c #3D1717",
"t 	c #310F0F",
"u 	c #130304",
"v 	c #732E2F",
"w 	c #752F30",
"x 	c #2C0E0E",
"y 	c #280C0C",
"z 	c #6D2B2C",
"A 	c #652A2A",
"B 	c #823838",
"C 	c #773031",
"D 	c #4F1D1E",
"E 	c #0E0202",
"F 	c #612929",
"G 	c #5E2727",
"H 	c #723131",
"I 	c #2D0F0F",
"J 	c #240A0A",
"K 	c #6C2E2E",
"L 	c #331212",
"M 	c #1B0707",
"N 	c #461B1B",
"O 	c #471B1B",
"P 	c #421919",
"Q 	c #4E1F1F",
"R 	c #220909",
"S 	c #290D0D",
"T 	c #662B2B",
"U 	c #4D1E1E",
"V 	c #522121",
"W 	c #4A1D1D",
"X 	c #230A0A",
"Y 	c #260B0B",
"Z 	c #4F1F1F",
"` 	c #180505",
" .	c #713030",
"..	c #401818",
"+.	c #301010",
"@.	c #602828",
"#.	c #7C3636",
"$.	c #481C1C",
"%.	c #270C0C",
"&.	c #642A2A",
"*.	c #692C2C",
"=.	c #1F0808",
"-.	c #753232",
";.	c #803838",
">.	c #341313",
",.	c #7C3535",
"'.	c #060101",
").	c #7E3737",
"!.	c #703030",
"~.	c #6F2F2F",
"{.	c #763333",
"].	c #3A1515",
"^.	c #371414",
"/.	c #391515",
"(.	c #632929",
"_.	c #743232",
":.	c #200909",
"<.	c #491D1D",
"[.	c #562323",
"}.	c #4A1B1B",
"|.	c #6C2A2B",
"1.	c #2A0C0C",
"2.	c #733131",
"3.	c #210808",
"4.	c #6F2C2D",
"5.	c #411717",
"6.	c #2F0E0E",
"7.	c #341212",
"8.	c #5F2425",
"9.	c #632627",
"0.	c #6D2E2E",
"a.	c #0A0202",
"b.	c #582122",
"c.	c #552020",
"d.	c #441819",
"e.	c #4C1C1C",
"f.	c #5D2324",
"g.	c #692D2D",
"h.	c #4E1C1D",
"i.	c #552323",
"j.	c #783333",
"k.	c #612526",
"l.	c #230909",
"m.	c #1A0506",
"n.	c #270A0B",
"o.	c #5E2425",
"p.	c #5D2424",
"q.	c #381414",
"r.	c #100303",
"s.	c #130404",
"t.	c #1E0707",
"u.	c #662828",
"v.	c #6A2A2A",
"w.	c #6B2A2B",
"x.	c #6A292A",
"y.	c #381213",
"z.	c #7A3434",
"A.	c #2B0E0E",
"B.	c #773333",
"C.	c #280B0B",
"D.	c #722D2E",
"E.	c #2A0C0D",
"F.	c #290B0C",
"G.	c #4E1D1D",
"H.	c #702C2D",
"I.	c #321010",
"J.	c #3F1818",
"K.	c #2A0D0D",
"L.	c #532121",
"M.	c #532222",
"N.	c #411919",
"O.	c #461919",
"P.	c #612828",
"                                                                                                                                                                                                                                                                                                                                                                                                    ",
"                                                                                                                                                                                                                                                                                                                                                                                                    ",
"                                                                                                                                                                                                                                                                                                                                                                                                    ",
". .                                                     . . . . .                                                           . . . . .                                                       . . . . .                                                     . . . . .                                                                   . . . . .                                         . . . . .   ",
"    .                 . . .     . . .               . .           . .                     . . .     . . .               . .           . .                 . . .     . . .               . .           .                 . . .     . . .               . .           . .                             . . .     . . .               . .           . .   . . .     . . .               . .           . ",
"      . . . . . . . .       . .       . . . . . . .                   . . . . . . . . . .       . .       . . . . . . .                   . . . . . . . .       . .       . . . . . . .                 . . . . . . . .       . .       . . . . . . .                               . . . . . . . .       . .       . . . . . . .                   .       . .       . . . . . . .                 ",
"                                                                                                                                                                                                                                                                        . . . . . .                                                                                                                 ",
"                                                                                                                                                                                                                                                                                                                                                                                                    ",
"                                                                                                                                                                                                                                                                                                                                                                                                    ",
"                      . . . .           . . .                                             . . . .           . . .                                         . . . .           . . .                                       . . . .           . . .                                                     . . . .           . . .                           . . . .           . . .                       ",
"  .   . . . . . . . .         . . . . .       . .                     . . . . . . . . . .         . . . . .       . .                     . . . . . . . .         . . . . .       . .                   . . . . . . . .         . . . . .       . .                                 . . . . . . . .         . . . . .       . .                     .         . . . . .       . .                   ",
".                                                 . . .             .                                                 . . .             .                                             . . .                                                         . . .             . . . . . . .                                             . . .             .                               . . .             ",
"    .                                                   . . . . . .                                                         . . . . . .                                                     . . . . . .                                                   . . . . . .                                                                 . . . . . .                                       . . . . . . ",
"                                                                                                                                                                                                                                                                                                                                                      + @ @ @ # $ % @ @ @ & & @ @ @ %               ",
"                                                                                                                                                                                                                                                                                                                                                    * = - - ; > % # - - , ' ) - - - @               ",
"                                                                                                                                                                                                                                                                                                                                                  ! = ; - ~ { %   # ] ^ / ( _ - - - :               ",
"                                                                                                                                                                                                                                                                                                                                                ! < - - [ } %     # | { 1 * 2 - - - :               ",
"  .                                                                                                                                                                                                                                                                                                                                           * = - - ~ } 1       * 3 $   * 4 - - 5 :               ",
".     . .                                                           . . . . .                                                           . . .                                                           . .                                                           .             . .                                                     ! = ; - ~ { %         $ $   1 6 ] - 7 8 9               ",
"    .     . . .         . . . .                         . . . . . .           . . .         . . . .                         . . . . . .       . . .         . . . .                         . . . . . .     . . .         . . . .                         . . . . . 0 a b .       +     . . .         . . . .                         . . c d - - [ } % . . . .       9 6 ; - 7 e 9     . . . . . . ",
"    f - - - - - g h - b         .         . . . . . . .           ( - <             . . . .         . i j , 3 . . . . . . .                         . . . .   9 - f . 9 - f   . . . . . . .   ( - k               . . . .         .         . . . . . . .           l a k   . . . :           . . . .         .     9 - m . . . . . .   * = - - ~ } n .         .   9 o , - p q r . . .             ",
"    f - - - - - s ( - k           . . . .                         ( - <                               t u v r                                                 9 - f   w - m .           x y   ( - k                                 . . . .                                       z                             . . w - f             + = ; - , A B 1 1 1 1 1 1   C D E - ] 6 l                     ",
"        F - G     ( - k                                           ( - <                               x y                                                     9 - f   9 - f             x y   ( - k                                                                               :                                 9 - f             : - - - - ; 7 7 7 7 7 7 y H # , - - I @   1 3 (               ",
"        F - G     ( - f < J y G     K L M N O - ( ( - P Q R S G   ( - <   T - U l V R | 3           W - - - l # = X Y Z (   ( - k G `  .        K L M N O - ( 9 - f   9 - f           P - - ..( - f < J y G     : N [ +.@.$           K L M N O - ( ( - P Q R S G   9 - f   #.- ..$.M %.&.V J I K     K L M N O - ( 9 - f             : - - - - - - - - - - - X  .# ] - - I :   *.=.@               ",
". .     F - G     ( - ` -.;.>.- ,.& '.2 ).: X - ( ( - ` -.;.>.- ,.( - < !.'.O % &.- ~.{.'.:           x y   ! Y ].* # +.+.l ( - ^.- - #       & '.2 ).: X - ( 9 - f   9 - f             x y   ( - ` -.;.>.- ,.! X /.! / - (.        & '.2 ).: X - ( ( - ` -.;.>.- ,.9 - f   #.- ` : H - 5 _.( , Y   & '.2 ).: X - ( 9 - f             : - ; ; ; ; ; ; ; - - - X  .# ] - - I : { :.- :               ",
"    . . F - G     ( - <.. . V - @ { - *.    [.- ( ( - <.    }.- |.h - t u 1.9   2.~ L { ;.  . .       x y   3 - *.    > - i ( - 3.4.. . . .   { - *.    [.- h w - f   9 - f             x y   ( - 5.. . }.- @ 3 - T     Y 6..       { - *.    [.- ( ( - <.    }.- |.w - f   #.- N   r - L     7.~   { - 8.    [.- ( 9 - f             l i 9.9.9.9.9.i 0.a.- - X  .#.x S S _ > ^.S | &       . . . . ",
"        b.- c.    h - d.    e.- |.f.- g.  . h.- h ( - d.. . i.- j.( - W f - k.. . ).F l.m.|.    . . . n.y   3 - o.. . > - 9.h - W           . f.- g.  . h.- ( 9 - m . w - f   . . . .   x l.. h - <     i.- |.p.- - - - - ,   . . . f.- g.  . h.- h ( - d.. . i.- j.9 - m   #.- Q   $ - g .   q.r.. f.- g.. . h.- ( 9 - m . . .     . . .           . C s.- - t.u.r -.-.-.v.w.x.x.-.9 . . .         ",
"        F - G . . ( - <     i.- j.# a.y.c z.Y - ( h - <     i.- j.( - < ! A.~ B.G C.v { - 3           x l.. D.| ].* # E.F.l ( - <             # ] y.c z.Y - ( 9 - f   9 - m .         . n.y   ( - <     i.- j.( ~ G.%               # a.y.c z.Y - ( h - <     i.- j.9 - f . H.- Q   $ - s   . I.s.  # ] J.! z.Y - h w - f       . .                   1 , - - X  .  . . .         . .               ",
"        F - G     ( - <     i.- j.  i L ` J.J.- ( ( - <     i.- j.( - <   {.7 K.#.L.[ X M.%           x y     & W R | Q #.  ( - <               i L ` J.J.- ( 9 - f   9 - f             x y   ( - <     i.- j.  -.N.^ [ O j.          i L ` J.J.- ( ( - <     i.- j.9 - f   #.- O.. $ - s     q.s.    i L ` J.J.- ( 9 - f                             1 , - - X  .                                  ",
"                                                                                                                                                                                                                                                                                                                                                        > P.P.&.,.                                  ",
"                                                                                                                                                                                                                                                                                                                                                                                                    ",
"                                                                                                                                                                                                                                                                                                                                                                                                    "};
